# xmcd
#
# Track frame offsets:
#	150
#	14220
#	37096
#	54195
#	81724
#	103844
#	122289
#	166045
#
# Disc length: 2359 seconds
#
# Revision: 0
# Processed by: cddbd v1.4PL0 Copyright (c) Steve Scherf et al.
# Submitted via: EasyCDDAExtractor 4.6.9.1
#
DISCID=64093508
DTITLE=John The Revelator - Seven (Blue) Seas
DYEAR=1999
DGENRE=Blues
TTITLE0=Shake Your Money Maker
TTITLE1=I've Got To Be With You Tonite
TTITLE2=Little Snake Drive
TTITLE3=Goin Down
TTITLE4=It Hurts Me Too
TTITLE5=Jumpin' At Shadows
TTITLE6=Seven Blue Seas
TTITLE7=Brown Eyed Handsome Man
EXTD=
EXTT0=
EXTT1=
EXTT2=
EXTT3=
EXTT4=
EXTT5=
EXTT6=
EXTT7=
PLAYORDER=
